<?xml version="1.0" encoding="UTF-8"?>
<svg width="54px" height="62px" viewBox="0 0 54 62" version="1.1" xmlns="http://www.w3.org/2000/svg" xmlns:xlink="http://www.w3.org/1999/xlink">
    <!-- Generator: Sketch 51.2 (57519) - http://www.bohemiancoding.com/sketch -->
    <title>Shape</title>
    <desc>Created with Sketch.</desc>
    <defs></defs>
    <g id="Page-1" stroke="none" stroke-width="1" fill="none" fill-rule="evenodd">
        <g id="Shape" fill="#DD5A58" fill-rule="nonzero">
            <path d="M0,2 C-1.3527075e-16,0.8954305 0.8954305,2.02906125e-16 2,0 L49,0 C51.7614237,4.39800865e-15 54,2.23857625 54,5 L54,50.3964714 C54,51.5010409 53.1045695,52.3964714 52,52.3964714 L19.6172,52.3964714 C19.2555,52.3964714 18.9003,52.4923743 18.5881,52.6744493 L2.59574,62 L2.59574,52.9041748 C2.59574,52.6237893 2.36766,52.3964714 2.0863,52.3964714 L1,52.3964714 C0.44771525,52.3964714 -3.8565838e-15,51.9487562 0,51.3964714 L0,2 Z M5,4 C4.44771525,4 4,4.44771525 4,5 L4,48 C4,48.5522847 4.44771525,49 5,49 L48,49 C48.5522847,49 49,48.5522847 49,48 L49,5 C49,4.44771525 48.5522847,4 48,4 L5,4 Z" id="Combined-Shape"></path>
        </g>
    </g>
</svg>